<svg id="Layer_1" data-name="Layer 1" xmlns="http://www.w3.org/2000/svg" width="16.392" height="18.734" viewBox="0 0 16.392 18.734">
  <path id="Path_586" data-name="Path 586" d="M15.807,3.122H10.928V1.561A1.566,1.566,0,0,0,9.367,0H7.025A1.566,1.566,0,0,0,5.464,1.561V3.122H.585A.6.6,0,0,0,0,3.708V4.879a.6.6,0,0,0,.585.585H15.807a.6.6,0,0,0,.585-.585V3.708A.6.6,0,0,0,15.807,3.122ZM7.025,1.951a.369.369,0,0,1,.39-.39H8.977a.369.369,0,0,1,.39.39V3.122H7.025Zm7.22,5.074H2.147a.6.6,0,0,0-.585.585v9.172a1.932,1.932,0,0,0,1.951,1.951h9.367a1.932,1.932,0,0,0,1.951-1.951V7.611A.6.6,0,0,0,14.246,7.025Zm-7.22,8.586a.369.369,0,0,1-.39.39H5.854a.369.369,0,0,1-.39-.39V10.147a.369.369,0,0,1,.39-.39h.781a.369.369,0,0,1,.39.39Zm3.9,0a.369.369,0,0,1-.39.39H9.757a.369.369,0,0,1-.39-.39V10.147a.369.369,0,0,1,.39-.39h.781a.369.369,0,0,1,.39.39Z" fill="#025497"/>
</svg>
