<svg xmlns="http://www.w3.org/2000/svg" width="11.92" height="17.855" viewBox="0 0 11.92 17.855">
  <path id="light_bulb" d="M14.921,2.633A6.014,6.014,0,0,0,9.657,8.092,6.2,6.2,0,0,0,11.791,13.3a1.909,1.909,0,0,1,.682,1.457v.031a1.562,1.562,0,0,0,.434,1.086,1.426,1.426,0,0,0,1.044.44h3.283a1.426,1.426,0,0,0,1.044-.44,1.562,1.562,0,0,0,.434-1.086v-.031a1.909,1.909,0,0,1,.682-1.457,6.165,6.165,0,0,0,2.163-4.67A5.986,5.986,0,0,0,14.921,2.633Zm3.24,15.44H13.053a.583.583,0,0,0-.569.6,1.751,1.751,0,0,0,1.707,1.785h2.846a1.751,1.751,0,0,0,1.707-1.785.609.609,0,0,0-.172-.426.556.556,0,0,0-.412-.169Z" transform="translate(-9.638 -2.598)" fill="#006729"/>
</svg>
