<svg id="Layer_4" data-name="Layer 4" xmlns="http://www.w3.org/2000/svg" width="47.928" height="73.199" viewBox="0 0 47.928 73.199">
  <path id="Path_911" data-name="Path 911" d="M23.952,73.2c-.179-.958-.36-1.915-.536-2.873Q22,62.606,20.583,54.885,19,46.239,17.405,37.592c-.671-3.655-1.346-7.31-2-10.968-.072-.405-.3-.383-.591-.383q-7.037,0-14.073,0H0L1.921,24.13Q12.75,12.216,23.569.292c.386-.426.545-.36.895.026q11,12.135,22.024,24.246c.473.52.944,1.042,1.44,1.59a.86.86,0,0,1-.586.086c-4.691,0-9.382.011-14.073-.01-.466,0-.62.128-.7.579-.885,4.914-1.793,9.823-2.694,14.734Q28.4,49.564,26.93,57.586q-1.375,7.5-2.748,15.006c-.037.2-.087.4-.131.594l-.1.013Z" transform="translate(0 0)" fill="#596172"/>
</svg>
