<svg xmlns="http://www.w3.org/2000/svg" width="13.38" height="8.459" viewBox="0 0 13.38 8.459">
  <path id="Path_416" data-name="Path 416" d="M6.176,7.435a.9.9,0,0,1-.711-.315Q2.917,4.42.365,1.727A1.053,1.053,0,0,1,.011.813a.891.891,0,0,1,.6-.76A.816.816,0,0,1,1.529.29Q2.837,1.668,4.141,3.05c.64.677,1.282,1.352,1.917,2.034.1.1.144.11.245,0Q8.543,2.707,10.79.334a.876.876,0,0,1,.858-.31.862.862,0,0,1,.673.636.945.945,0,0,1-.226.963c-.362.39-.73.775-1.1,1.162L6.884,7.136a.884.884,0,0,1-.708.3" transform="translate(0.498 0.521)" fill="#606" stroke="#606" stroke-linejoin="round" stroke-width="1"/>
</svg>
