<svg xmlns="http://www.w3.org/2000/svg" xmlns:xlink="http://www.w3.org/1999/xlink" width="20.963" height="20.98" viewBox="0 0 20.963 20.98">
  <defs>
    <clipPath id="clip-path">
      <rect id="Rectangle_356" data-name="Rectangle 356" width="20.963" height="20.98" fill="#000000"/>
    </clipPath>
  </defs>
  <g id="Group_351" data-name="Group 351" clip-path="url(#clip-path)">
    <path id="Path_225" data-name="Path 225" d="M32.979,14.763c.084.074.14.117.19.167.105.1.216.2.376.147a.4.4,0,0,0,.275-.361q.182-1.028.368-2.055.447-2.461.895-4.923a2.573,2.573,0,0,0,.033-.452q0-3.373,0-6.747c0-.471.068-.538.542-.538h6.158a.658.658,0,0,1,.315.037c.221.113.24.345.034.553-.5.5-.992,1-1.5,1.49-.158.152-.168.243,0,.4.5.475.975.968,1.463,1.452.125.124.242.246.156.442s-.242.187-.407.187H36.119c-.37,0-.37,0-.37.357,0,.759,0,1.517,0,2.276a.776.776,0,0,0,.135.45q4.066,6.247,8.127,12.5c.068.1.142.206.2.315.149.273.018.5-.3.515-.071,0-.143,0-.214,0H31.438c-.337,0-.338,0-.243-.318q.854-2.844,1.71-5.688c.018-.058.042-.115.074-.2" transform="translate(-26.594 0.001)" fill="#000000"/>
    <path id="Path_226" data-name="Path 226" d="M7.563,61.877l-.9,4.935c-.046-.01-.067-.008-.079-.017-.441-.343-.6-.294-.761.241q-.97,3.23-1.934,6.462a.348.348,0,0,1-.4.3c-1.008-.015-2.017-.008-3.026-.007-.165,0-.326,0-.419-.171s0-.307.088-.443l6.317-9.719q.523-.8,1.044-1.609l.073.028" transform="translate(0 -52.818)" fill="#000000"/>
    <path id="Path_227" data-name="Path 227" d="M99.194,86.157c-.339,0-.678,0-1.017,0-.134,0-.223-.005-.185-.187a.991.991,0,0,0-.194-.756c-1.466-2.249-2.925-4.5-4.4-6.746a.553.553,0,0,1-.015-.711c.252-.377.456-.786.688-1.177.2-.332.44-.335.65-.007q1.266,1.969,2.527,3.942,1.6,2.5,3.21,5c.091.142.208.28.112.465s-.287.181-.467.18h-.91" transform="translate(-79.643 -65.184)" fill="#000000"/>
  </g>
</svg>
